<?xml version="1.0" encoding="utf-8"?>
<!-- Generator: Adobe Illustrator 24.0.2, SVG Export Plug-In . SVG Version: 6.00 Build 0)  -->
<svg version="1.1" id="Layer_1" xmlns="http://www.w3.org/2000/svg" xmlns:xlink="http://www.w3.org/1999/xlink" x="0px" y="0px"
	 viewBox="0 0 36 36" style="enable-background:new 0 0 36 36;" xml:space="preserve">
<style type="text/css">
	.st0{fill:#A0A0A0;}
	.st1{fill:url(#SVGID_1_);}
	.st2{fill:#FFFFFF;}
</style>
<g>
	<polygon class="st0" points="20.2,28.8 21.4,30.5 22.5,28.8 22.5,21.7 20.2,21.7 	"/>
	<polygon class="st0" points="13.5,28.8 14.6,30.5 15.8,28.8 15.8,21.7 13.5,21.7 	"/>
	<path class="st0" d="M21.8,28.8"/>
</g>
<g>
	<linearGradient id="SVGID_1_" gradientUnits="userSpaceOnUse" x1="11.0902" y1="10.1937" x2="25.0737" y2="23.1789">
		<stop  offset="0" style="stop-color:#3FA1FF"/>
		<stop  offset="9.834151e-02" style="stop-color:#4D93FF"/>
		<stop  offset="0.5193" style="stop-color:#865AFF"/>
		<stop  offset="0.8322" style="stop-color:#A937FF"/>
		<stop  offset="1" style="stop-color:#B62AFF"/>
	</linearGradient>
	<path class="st1" d="M18,6.3c-4.2,0-7.6,3.4-7.6,7.6v8.7h15.2v-8.7C25.6,9.7,22.2,6.3,18,6.3z M23.9,13.9L23.9,13.9
		c0,0.5-0.4,0.8-0.8,0.8c-0.4,0-0.8-0.3-0.8-0.8v-0.1v0c0-2.2-1.8-4-4-4c0,0,0,0-0.1,0c-0.4,0-0.8-0.4-0.8-0.8
		c0-0.4,0.3-0.8,0.7-0.8c0,0,0.1,0,0.2,0C21.5,8.3,23.9,10.8,23.9,13.9L23.9,13.9z"/>
	<path class="st2" d="M23.9,13.9L23.9,13.9c0,0.5-0.4,0.8-0.8,0.8c-0.4,0-0.8-0.3-0.8-0.8v-0.1v0c0-2.2-1.8-4-4-4c0,0,0,0-0.1,0
		c-0.4,0-0.8-0.4-0.8-0.8c0-0.4,0.3-0.8,0.7-0.8c0,0,0.1,0,0.2,0C21.5,8.3,23.9,10.8,23.9,13.9L23.9,13.9z"/>
</g>
</svg>
