<?xml version="1.0" encoding="utf-8"?>
<!-- Generator: Adobe Illustrator 24.0.2, SVG Export Plug-In . SVG Version: 6.00 Build 0)  -->
<svg version="1.1" id="Layer_1" xmlns="http://www.w3.org/2000/svg" xmlns:xlink="http://www.w3.org/1999/xlink" x="0px" y="0px"
	 viewBox="0 0 142.6 47.4" style="enable-background:new 0 0 142.6 47.4;" xml:space="preserve">
<style type="text/css">
	.st0{fill:#FFFFFF;}
	.st1{fill:url(#SVGID_1_);}
</style>
<g id="Group_1" transform="translate(-83 -98)">
	<path id="Path_1" class="st0" d="M85.2,112.5h13.7l-14.3,13.1l0,4.8h21.1v-4.8H92.8l13.5-12.2l0,0V108H85.2V112.5z"/>
	<path id="Path_2" class="st0" d="M125.1,108l-5.3,15l-6.2-15h-6l9.1,21.5c0.3,0.6,0.3,1.4,0,2l-4.5,12.1h6.2l12.8-35.6H125.1z"/>
	<path id="Path_3" class="st0" d="M152.6,110.9c-1-1-2.2-1.8-3.5-2.4c-1.4-0.6-2.8-0.9-4.3-0.9c-2.6-0.1-5.1,1.1-6.7,3.2V108h-5.7
		v35.6h5.7v-24.9c0-0.8,0.2-1.6,0.5-2.3c0.6-1.4,1.7-2.5,3.1-3.2c1.5-0.6,3.2-0.6,4.7,0c0.7,0.3,1.4,0.7,1.9,1.3
		c0.6,0.5,1,1.2,1.3,1.9c0.3,0.7,0.5,1.4,0.5,2.1c0,0.8-0.2,1.6-0.5,2.4c-0.3,0.7-0.7,1.3-1.3,1.7c-0.5,0.6-1.2,1-1.9,1.3
		c-0.7,0.3-1.5,0.5-2.3,0.5c-0.8,0-1.6-0.2-2.3-0.5l0,0l-2.1,3.9v0c1.5,1.2,3.3,1.7,5.2,1.7c1.5,0,2.9-0.3,4.3-0.9
		c2.7-1.1,4.8-3.2,5.9-5.9c0.6-1.3,0.9-2.7,0.9-4.2c0-1.4-0.3-2.8-0.9-4.1C154.4,113,153.6,111.9,152.6,110.9z"/>
	<path id="Path_4" class="st0" d="M203.4,118.4c0-1.4-0.3-2.8-0.9-4.2c-0.6-1.3-1.4-2.4-2.3-3.4c-4.3-4.2-11.2-4.2-15.5,0
		c-1,1-1.8,2.1-2.3,3.4c-1.2,2.7-1.2,5.7,0,8.3c0.6,1.3,1.4,2.4,2.3,3.4c4.3,4.2,11.2,4.2,15.5,0c1-1,1.8-2.1,2.3-3.4
		C203.1,121.2,203.4,119.8,203.4,118.4z M197.1,120.6c-0.3,0.7-0.6,1.3-1.1,1.9c-0.4,0.5-1,1-1.6,1.3c-0.6,0.3-1.3,0.5-2,0.5
		c-0.7,0-1.4-0.2-2-0.5c-0.6-0.3-1.2-0.7-1.6-1.3c-0.5-0.6-0.8-1.2-1.1-1.9c-0.3-0.7-0.4-1.5-0.4-2.3c0-0.8,0.1-1.5,0.4-2.2
		c0.2-0.7,0.6-1.3,1.1-1.8c0.5-0.5,1-0.9,1.6-1.2c0.6-0.3,1.3-0.5,2-0.5c0.7,0,1.4,0.2,2,0.5c0.6,0.3,1.2,0.7,1.6,1.2
		c0.5,0.5,0.9,1.2,1.1,1.8c0.3,0.7,0.4,1.5,0.4,2.2C197.5,119,197.4,119.8,197.1,120.6L197.1,120.6z"/>
	<g>
		<polygon class="st0" points="223.7,108 223.8,108 216.9,108 212.6,115.2 208.3,108 201.5,108 209.2,118.7 216.9,129.1 
			216.9,129.1 223.8,129.1 216,118.6 		"/>
		<polygon class="st0" points="201.4,129.1 208.3,129.1 212.2,123.8 207.1,121.4 		"/>
	</g>
	<path class="st0" d="M179.3,129.1l0-12c0-3-1.4-5.8-3.9-7.5c-1.6-0.9-3.5-1.3-5.3-1.1c-3.6,0.3-5.1,1.3-6.4,2.7V99.5h-5.6v29.6h5.6
		v-11.9c0.1-1.1,0.8-2.2,1.7-2.9c1.1-0.9,2.4-1.3,3.8-1.3c0.8-0.1,1.6,0,2.3,0.3c1.4,0.7,2.4,2.2,2.4,3.8v12L179.3,129.1z"/>
</g>
<linearGradient id="SVGID_1_" gradientUnits="userSpaceOnUse" x1="64.4839" y1="34.9857" x2="138.5194" y2="47.1606">
	<stop  offset="0" style="stop-color:#3FA1FF"/>
	<stop  offset="9.834152e-02" style="stop-color:#4D93FF"/>
	<stop  offset="0.5193" style="stop-color:#865AFF"/>
	<stop  offset="0.8322" style="stop-color:#A937FF"/>
	<stop  offset="1" style="stop-color:#B62AFF"/>
</linearGradient>
<path class="st1" d="M64.5,43.4h4.9v2.2h-7.8V35.3h2.8V43.4z M73.9,45.6H71V35.3h2.8V45.6z M85.7,44.3c-0.4,0.4-1.1,0.8-1.9,1
	c-0.8,0.3-1.8,0.4-2.8,0.4c-1.5,0-2.8-0.4-3.7-1.2s-1.4-2-1.5-3.5l0-0.9c0-1,0.2-1.9,0.6-2.7s1-1.3,1.8-1.8c0.8-0.4,1.6-0.6,2.6-0.6
	c1.5,0,2.6,0.3,3.4,0.9c0.8,0.6,1.3,1.5,1.4,2.6H83c-0.1-0.6-0.3-1-0.6-1.2C82,37.2,81.6,37,81,37c-0.7,0-1.3,0.3-1.6,0.8
	s-0.6,1.3-0.6,2.3v0.6c0,1,0.2,1.8,0.6,2.3c0.4,0.5,1,0.8,1.9,0.8c0.7,0,1.3-0.1,1.6-0.4V42h-2v-1.9h4.8V44.3z M97.5,45.6h-2.8
	l0-4.1h-4.2l0,4.1h-2.8V35.3h2.8v4.1h4.2v-4.1h2.8V45.6z M108.5,37.6H105v8h-2.8v-8h-3.5v-2.4h9.8V37.6z M113,45.6h-2.8V35.3h2.8
	V45.6z M125.1,45.6h-2.8l-4.2-6.4v6.4h-2.8V35.3h2.8l4.2,6.4v-6.4h2.8V45.6z M136.7,44.3c-0.4,0.4-1.1,0.8-1.9,1
	c-0.8,0.3-1.8,0.4-2.8,0.4c-1.5,0-2.8-0.4-3.7-1.2s-1.4-2-1.5-3.5l0-0.9c0-1,0.2-1.9,0.6-2.7s1-1.3,1.8-1.8c0.8-0.4,1.6-0.6,2.6-0.6
	c1.5,0,2.6,0.3,3.4,0.9c0.8,0.6,1.3,1.5,1.4,2.6H134c-0.1-0.6-0.3-1-0.6-1.2c-0.3-0.2-0.8-0.4-1.4-0.4c-0.7,0-1.3,0.3-1.6,0.8
	s-0.6,1.3-0.6,2.3v0.6c0,1,0.2,1.8,0.6,2.3c0.4,0.5,1,0.8,1.9,0.8c0.7,0,1.3-0.1,1.6-0.4V42h-2v-1.9h4.8V44.3z"/>
</svg>
